<svg width="20" height="16" viewBox="0 0 20 16" fill="none" xmlns="http://www.w3.org/2000/svg">
<path d="M16.9308 1.42482C15.6561 0.820772 14.2892 0.375739 12.8599 0.120851C12.8339 0.115931 12.8079 0.128225 12.7945 0.152813C12.6187 0.475725 12.4239 0.89699 12.2876 1.2281C10.7503 0.99043 9.22099 0.99043 7.71527 1.2281C7.57887 0.88963 7.37707 0.475725 7.20048 0.152813C7.18707 0.129045 7.16107 0.116752 7.13504 0.120851C5.70659 0.374925 4.33963 0.819958 3.06411 1.42482C3.05307 1.42973 3.04361 1.43794 3.03732 1.44858C0.444493 5.44899 -0.265792 9.35107 0.0826501 13.2048C0.0842267 13.2236 0.0944749 13.2417 0.108665 13.2531C1.81934 14.5505 3.47642 15.3382 5.10273 15.8602C5.12876 15.8684 5.15634 15.8586 5.1729 15.8365C5.55761 15.2939 5.90054 14.7218 6.19456 14.1202C6.21192 14.085 6.19535 14.0432 6.15989 14.0293C5.61594 13.8162 5.098 13.5564 4.59977 13.2613C4.56037 13.2376 4.55721 13.1793 4.59347 13.1515C4.69831 13.0703 4.80318 12.9859 4.9033 12.9007C4.92141 12.8851 4.94665 12.8818 4.96794 12.8917C8.24107 14.435 11.7846 14.435 15.0191 12.8917C15.0404 12.881 15.0657 12.8843 15.0846 12.8999C15.1847 12.9851 15.2895 13.0703 15.3952 13.1515C15.4314 13.1793 15.4291 13.2376 15.3897 13.2613C14.8914 13.5621 14.3735 13.8162 13.8288 14.0285C13.7933 14.0424 13.7775 14.085 13.7949 14.1202C14.0952 14.721 14.4381 15.2931 14.8157 15.8356C14.8315 15.8586 14.8599 15.8684 14.8859 15.8602C16.5201 15.3382 18.1772 14.5505 19.8879 13.2531C19.9028 13.2417 19.9123 13.2244 19.9139 13.2056C20.3309 8.75029 19.2154 4.8802 16.9568 1.4494C16.9513 1.43794 16.9419 1.42973 16.9308 1.42482ZM6.68335 10.8583C5.69792 10.8583 4.88594 9.92396 4.88594 8.77652C4.88594 7.62909 5.68217 6.69478 6.68335 6.69478C7.69239 6.69478 8.49651 7.6373 8.48073 8.77652C8.48073 9.92396 7.68451 10.8583 6.68335 10.8583ZM13.329 10.8583C12.3435 10.8583 11.5316 9.92396 11.5316 8.77652C11.5316 7.62909 12.3278 6.69478 13.329 6.69478C14.338 6.69478 15.1421 7.6373 15.1264 8.77652C15.1264 9.92396 14.338 10.8583 13.329 10.8583Z" fill="white"/>
</svg>
