<svg width="1920" height="1102" viewBox="0 0 1920 1102" fill="none" xmlns="http://www.w3.org/2000/svg">
<path d="M2360 403.56C2360 788.414 1740.81 1100.4 977 1100.4M2360 403.56C2360 18.7059 1740.81 -293.28 977 -293.28M2360 403.56H-406M977 1100.4C213.19 1100.4 -406 788.414 -406 403.56M977 1100.4V-293.28M-406 403.56C-406 18.7059 213.19 -293.28 977 -293.28M977 -293.287C458.772 -234.769 65.0837 54.9543 65.0836 403.553C65.0836 752.151 458.771 1041.88 976.999 1100.39M977 -293.287C311.408 -234.769 -194.229 54.9543 -194.229 403.553C-194.229 752.151 311.408 1041.88 976.999 1100.39M977 -293.287C718.987 -200.181 531.846 76.5952 531.846 403.553C531.846 730.511 718.987 1007.29 976.999 1100.39M977 -293.287C841.343 -141.66 752.262 113.874 752.262 403.553C752.262 693.233 841.343 948.766 976.999 1100.39M977 -293.287C581.213 -200.181 294.143 76.5949 294.143 403.553C294.143 730.511 581.213 1007.29 976.999 1100.39M977.001 1100.4C1495.23 1041.89 1888.92 752.162 1888.92 403.563C1888.92 54.9646 1495.23 -234.759 977.002 -293.277M977.001 1100.4C1642.59 1041.89 2148.23 752.162 2148.23 403.563C2148.23 54.9647 1642.59 -234.759 977.002 -293.277M977.001 1100.4C1235.01 1007.3 1422.15 730.521 1422.15 403.563C1422.15 76.6053 1235.01 -200.17 977.002 -293.277M977.001 1100.4C1112.66 948.776 1201.74 693.243 1201.74 403.563C1201.74 113.884 1112.66 -141.649 977.002 -293.277M977.001 1100.4C1372.79 1007.3 1659.86 730.521 1659.86 403.563C1659.86 76.6053 1372.79 -200.17 977.002 -293.277M-241.771 72.5614C75.9381 164.346 504.921 220.64 976.998 220.64C1449.08 220.64 1878.06 164.346 2195.77 72.5614M2295.17 190.153C1929.63 269.385 1472.71 316.455 976.999 316.455C481.288 316.455 24.3644 269.385 -341.172 190.153M-103.47 -31.965C185.32 67.0245 563.297 127.002 976.998 127.002C1390.7 127.002 1768.68 67.0245 2057.47 -31.9651M237.957 -186.576C449.685 -106.768 703.774 -60.2739 976.998 -60.2739C1250.22 -60.2739 1504.31 -106.768 1716.04 -186.576M1264.4 -278.285C1173.89 -254.261 1077.3 -241.278 976.997 -241.278C876.698 -241.278 780.105 -254.261 689.593 -278.285M1888.91 -121.248C1680.44 -27.2737 1347.2 33.3636 976.998 33.3636C606.802 33.3636 273.559 -27.2737 65.0829 -121.248M1504.27 -241.017C1361.08 -182.528 1177.35 -147.379 976.998 -147.379C776.644 -147.379 592.917 -182.528 449.729 -241.017M2195.77 734.554C1878.06 642.769 1449.08 586.475 977 586.475C504.923 586.475 75.9397 642.768 -241.769 734.554M-341.174 616.962C24.3632 537.73 481.287 490.66 976.998 490.66C1472.71 490.66 1929.63 537.73 2295.17 616.962M2057.47 839.08C1768.68 740.091 1390.7 680.113 976.998 680.113C563.297 680.113 185.32 740.09 -103.47 839.08M1716.04 993.692C1504.31 913.884 1250.22 867.389 976.997 867.389C703.773 867.389 449.684 913.884 237.956 993.691M689.594 1085.4C780.107 1061.38 876.699 1048.39 976.999 1048.39C1077.3 1048.39 1173.89 1061.38 1264.4 1085.4M65.0837 928.363C273.56 834.389 606.803 773.752 976.999 773.752C1347.2 773.752 1680.44 834.389 1888.91 928.363M449.729 1048.13C592.917 989.642 776.644 954.494 976.997 954.494C1177.35 954.494 1361.08 989.642 1504.27 1048.13" stroke="#646464" stroke-opacity="0.25" stroke-width="2"/>
</svg>
